<?xml version="1.0" encoding="UTF-8" standalone="no"?>
<!-- Generated by IcoMoon.io -->

<svg
   xmlns:dc="http://purl.org/dc/elements/1.1/"
   xmlns:cc="http://creativecommons.org/ns#"
   xmlns:rdf="http://www.w3.org/1999/02/22-rdf-syntax-ns#"
   xmlns:svg="http://www.w3.org/2000/svg"
   xmlns="http://www.w3.org/2000/svg"
   xmlns:sodipodi="http://sodipodi.sourceforge.net/DTD/sodipodi-0.dtd"
   xmlns:inkscape="http://www.inkscape.org/namespaces/inkscape"
   version="1.1"
   width="384"
   height="448"
   viewBox="0 0 384 448"
   id="svg2"
   inkscape:version="0.48.4 r9939"
   sodipodi:docname="square.svg">
  <metadata
     id="metadata11">
    <rdf:RDF>
      <cc:Work
         rdf:about="">
        <dc:format>image/svg+xml</dc:format>
        <dc:type
           rdf:resource="http://purl.org/dc/dcmitype/StillImage" />
      </cc:Work>
    </rdf:RDF>
  </metadata>
  <defs
     id="defs9" />
  <sodipodi:namedview
     pagecolor="#ffffff"
     bordercolor="#666666"
     borderopacity="1"
     objecttolerance="10"
     gridtolerance="10"
     guidetolerance="10"
     inkscape:pageopacity="0"
     inkscape:pageshadow="2"
     inkscape:window-width="1920"
     inkscape:window-height="1037"
     id="namedview7"
     showgrid="false"
     inkscape:zoom="1.0535714"
     inkscape:cx="192.06232"
     inkscape:cy="261.55857"
     inkscape:window-x="0"
     inkscape:window-y="25"
     inkscape:window-maximized="1"
     inkscape:current-layer="svg2" />
  <g
     id="icomoon-ignore" />
  <path
     d="M 72 32 C 52.166667 32 35.208333 39.041667 21.125 53.125 C 7.0416667 67.208333 0 84.166667 0 104 L 0 344 C 0 363.83333 7.0416667 380.79167 21.125 394.875 C 35.208333 408.95833 52.166667 416 72 416 L 312 416 C 331.83333 416 348.79167 408.95833 362.875 394.875 C 376.95833 380.79167 384 363.83333 384 344 L 384 104 C 384 84.166667 376.95833 67.208333 362.875 53.125 C 348.79167 39.041667 331.83333 32 312 32 L 72 32 z M 313.71875 72.28125 C 321.62482 72.28125 328.5392 74.904358 334.46875 80.15625 C 340.3983 85.408136 343.375 91.968928 343.375 99.875 C 343.375 106.99046 340.83247 115.52969 335.75 125.46875 C 298.25264 196.51042 271.99028 238.98291 256.96875 252.875 C 246.0132 263.15289 233.69746 268.28125 220.03125 268.28125 C 205.80033 268.28125 193.56517 263.07231 183.34375 252.625 C 173.12233 242.1777 168.03125 229.78137 168.03125 215.4375 C 168.03125 200.98068 173.23417 188.98728 183.625 179.5 L 291.6875 81.40625 C 298.35119 75.307283 305.69974 72.28125 313.71875 72.28125 z M 159.71875 247.4375 C 164.12356 256.02123 170.12629 263.36978 177.75 269.46875 C 185.37371 275.56772 193.87566 279.85899 203.25 282.34375 L 203.4375 294.375 C 203.88929 318.43203 196.57801 338.02177 181.5 353.15625 C 166.42199 368.29072 146.72043 375.875 122.4375 375.875 C 108.54541 375.875 96.260914 373.25189 85.53125 368 C 74.801585 362.74811 66.181771 355.52345 59.6875 346.375 C 53.193228 337.22655 48.306621 326.89527 45.03125 315.375 C 41.755878 303.85473 40.125 291.45237 40.125 278.125 C 40.915607 278.68972 43.222409 280.36391 47.0625 283.1875 C 50.902591 286.01109 54.400072 288.51634 57.5625 290.71875 C 60.724928 292.92116 64.061241 294.9862 67.5625 296.90625 C 71.063759 298.8263 73.649592 299.78125 75.34375 299.78125 C 79.974448 299.78125 83.075036 297.71017 84.65625 293.53125 C 87.479846 286.07695 90.735575 279.72064 94.40625 274.46875 C 98.076925 269.21686 102.00858 264.92559 106.1875 261.59375 C 110.36642 258.2619 115.33361 255.56424 121.09375 253.53125 C 126.85388 251.49826 132.65816 250.06583 138.53125 249.21875 C 144.40433 248.37167 151.47386 247.77633 159.71875 247.4375 z "
     id="path5" />
</svg>
